<svg width="180" height="54" viewBox="0 0 180 54" fill="none" xmlns="http://www.w3.org/2000/svg">
<path d="M39.0285 17.4606C39.8459 16.1854 40.974 15.1554 42.4127 14.3707C43.8514 13.5859 45.5353 13.1936 47.4645 13.1936C49.7206 13.1936 51.7642 13.7658 53.5952 14.9102C55.4263 16.0546 56.865 17.6895 57.9113 19.8148C58.9903 21.9402 59.5298 24.4088 59.5298 27.2208C59.5298 30.0328 58.9903 32.5178 57.9113 34.6758C56.865 36.8012 55.4263 38.4524 53.5952 39.6295C51.7642 40.7739 49.7206 41.3461 47.4645 41.3461C45.568 41.3461 43.8841 40.9538 42.4127 40.169C40.974 39.3843 39.8459 38.3707 39.0285 37.1282V54H30.6416V0L39.0285 13.5859V17.4606ZM50.9958 27.2208C50.9958 25.1282 50.4072 23.4933 49.2301 22.3162C48.0857 21.1064 46.6634 20.5015 44.9631 20.5015C43.2955 20.5015 41.8732 21.1064 40.6961 22.3162C39.5517 23.526 38.9795 25.1772 38.9795 27.2699C38.9795 29.3625 39.5517 31.0137 40.6961 32.2235C41.8732 33.4333 43.2955 34.0382 44.9631 34.0382C46.6307 34.0382 48.053 33.4333 49.2301 32.2235C50.4072 30.981 50.9958 29.3135 50.9958 27.2208Z" fill="#F56020"/>
<path d="M8.38691 9V27.1226C8.38691 29.1825 8.89372 30.7683 9.90734 31.88C10.921 32.9918 12.4087 33.5476 14.3706 33.5476C16.3324 33.5476 17.8365 32.9918 18.8828 31.88C19.9291 30.7683 20.4523 29.1825 20.4523 27.1226V9L28.8392 0V27.0735C28.8392 30.1471 28.1852 32.7465 26.8773 34.8719C25.5694 36.9972 23.8038 38.5994 21.5803 39.6784C19.3896 40.7574 16.9373 41.2969 14.2234 41.2969C11.5095 41.2969 9.07356 40.7738 6.91552 39.7274C4.79018 38.6484 3.10626 37.0462 1.86376 34.9209C0.621252 32.7629 0 30.1471 0 27.0735V0L8.38691 9Z" fill="#244B35"/>
<path d="M165.462 41.9998V16.2718H169.062V20.4958L168.582 19.8718C169.19 18.6558 170.102 17.6958 171.318 16.9918C172.566 16.2878 174.07 15.9358 175.83 15.9358H177.462V19.5358H175.206C173.35 19.5358 171.862 20.1118 170.742 21.2638C169.622 22.4158 169.062 24.0478 169.062 26.1598V41.9998H165.462Z" fill="#424242"/>
<path d="M146.056 42.5758C143.624 42.5758 141.416 41.9998 139.432 40.8478C137.448 39.6638 135.864 38.0638 134.68 36.0478C133.528 33.9998 132.952 31.6798 132.952 29.0878C132.952 26.5278 133.528 24.2398 134.68 22.2238C135.832 20.2078 137.384 18.6238 139.336 17.4718C141.32 16.2878 143.56 15.6958 146.056 15.6958C148.552 15.6958 150.776 16.2718 152.728 17.4238C154.712 18.5758 156.264 20.1598 157.384 22.1758C158.536 24.1918 159.112 26.4958 159.112 29.0878C159.112 31.7118 158.52 34.0478 157.336 36.0958C156.152 38.1118 154.568 39.6958 152.584 40.8478C150.632 41.9998 148.456 42.5758 146.056 42.5758ZM146.056 38.9758C147.784 38.9758 149.336 38.5438 150.712 37.6798C152.12 36.8158 153.224 35.6318 154.024 34.1278C154.856 32.6238 155.272 30.9438 155.272 29.0878C155.272 27.2318 154.856 25.5678 154.024 24.0958C153.224 22.6238 152.12 21.4558 150.712 20.5918C149.336 19.7278 147.784 19.2958 146.056 19.2958C144.328 19.2958 142.76 19.7278 141.352 20.5918C139.976 21.4558 138.872 22.6238 138.04 24.0958C137.208 25.5678 136.792 27.2318 136.792 29.0878C136.792 30.9438 137.208 32.6238 138.04 34.1278C138.872 35.6318 139.976 36.8158 141.352 37.6798C142.76 38.5438 144.328 38.9758 146.056 38.9758Z" fill="#424242"/>
<path d="M114.603 42.5758C112.171 42.5758 109.963 41.9998 107.979 40.8478C105.995 39.6638 104.411 38.0638 103.227 36.0478C102.075 33.9998 101.499 31.6798 101.499 29.0878C101.499 26.5278 102.075 24.2398 103.227 22.2238C104.379 20.2078 105.931 18.6238 107.883 17.4718C109.867 16.2878 112.107 15.6958 114.603 15.6958C117.099 15.6958 119.323 16.2718 121.275 17.4238C123.259 18.5758 124.811 20.1598 125.931 22.1758C127.083 24.1918 127.659 26.4958 127.659 29.0878C127.659 31.7118 127.067 34.0478 125.883 36.0958C124.699 38.1118 123.115 39.6958 121.131 40.8478C119.179 41.9998 117.003 42.5758 114.603 42.5758ZM114.603 38.9758C116.331 38.9758 117.883 38.5438 119.259 37.6798C120.667 36.8158 121.771 35.6318 122.571 34.1278C123.403 32.6238 123.819 30.9438 123.819 29.0878C123.819 27.2318 123.403 25.5678 122.571 24.0958C121.771 22.6238 120.667 21.4558 119.259 20.5918C117.883 19.7278 116.331 19.2958 114.603 19.2958C112.875 19.2958 111.307 19.7278 109.899 20.5918C108.523 21.4558 107.419 22.6238 106.587 24.0958C105.755 25.5678 105.339 27.2318 105.339 29.0878C105.339 30.9438 105.755 32.6238 106.587 34.1278C107.419 35.6318 108.523 36.8158 109.899 37.6798C111.307 38.5438 112.875 38.9758 114.603 38.9758Z" fill="#424242"/>
<path d="M91.5869 41.9998V5.66382H95.1869V41.9998H91.5869Z" fill="#424242"/>
<path d="M64.2246 41.9997V6.23975H86.3046V9.83975H68.0646V22.2717H84.8646V25.8717H68.0646V41.9997H64.2246Z" fill="#424242"/>
</svg>
